<svg width="566" height="792" viewBox="0 0 566 792" fill="none" xmlns="http://www.w3.org/2000/svg">
<path d="M475.22 520.973C375.355 466.936 307.534 361.288 307.534 239.798C307.534 118.308 375.355 12.676 475.22 -41.3768" stroke="black" stroke-opacity="0.05" stroke-width="3" stroke-miterlimit="10"/>
<path d="M475.22 -41.3768C447.457 -34.5026 420.21 -23.258 394.36 -7.71897C313.241 41.0531 256.895 133.771 256.895 239.798C256.895 345.825 313.241 438.544 394.36 487.316C420.21 502.855 447.457 514.099 475.22 520.973" stroke="black" stroke-opacity="0.05" stroke-width="3" stroke-miterlimit="10"/>
<path d="M475.22 -41.3768C443.966 -40.7698 411.831 -34.5178 380.152 -22.1199C279.968 17.0464 206.257 119.674 206.257 239.798C206.257 359.923 279.968 462.55 380.152 501.717C411.846 514.099 443.981 520.366 475.22 520.973" stroke="black" stroke-opacity="0.05" stroke-width="3" stroke-miterlimit="10"/>
<path d="M475.22 -41.3768C440.49 -47.037 403.437 -45.7927 365.929 -36.5208C246.649 -7.05125 155.588 105.592 155.588 239.798C155.588 374.005 246.634 486.663 365.914 516.117C403.422 525.389 440.475 526.634 475.205 520.973" stroke="black" stroke-opacity="0.05" stroke-width="3" stroke-miterlimit="10"/>
<path d="M475.22 -41.3768C436.999 -53.3043 395.028 -57.1739 351.706 -50.9218C213.285 -31.4828 104.935 91.5095 104.935 239.798C104.935 388.087 213.285 511.095 351.691 530.518C395.012 536.755 436.983 532.901 475.205 520.973" stroke="black" stroke-opacity="0.05" stroke-width="3" stroke-miterlimit="10"/>
<path d="M475.22 -41.3769C433.507 -59.5715 386.649 -68.4488 337.483 -65.3228C180.012 -55.6109 54.2966 77.4272 54.2966 239.798C54.2966 402.169 180.027 535.207 337.483 544.919C386.649 548.045 433.507 539.168 475.22 520.973" stroke="black" stroke-opacity="0.05" stroke-width="3" stroke-miterlimit="10"/>
<path d="M475.22 -41.3769C430.016 -65.8236 378.27 -79.7238 323.26 -79.7238C146.739 -79.7238 3.64305 63.3297 3.64305 239.798C3.64305 416.267 146.739 559.32 323.26 559.32C378.254 559.32 430.016 545.42 475.205 520.973" stroke="black" stroke-opacity="0.05" stroke-width="3" stroke-miterlimit="10"/>
<path d="M346.454 396.479C400.507 296.658 506.186 228.857 627.712 228.857C749.238 228.857 854.917 296.658 908.97 396.479" stroke="black" stroke-opacity="0.05" stroke-width="3" stroke-miterlimit="10"/>
<path d="M908.97 396.479C902.094 368.724 890.846 341.485 875.302 315.642C826.516 234.548 733.77 178.219 627.712 178.219C521.654 178.219 428.908 234.548 380.121 315.642C364.578 341.485 353.33 368.724 346.454 396.479" stroke="black" stroke-opacity="0.05" stroke-width="3" stroke-miterlimit="10"/>
<path d="M908.97 396.479C908.363 365.234 902.109 333.108 889.708 301.439C850.53 201.284 747.872 127.595 627.712 127.595C507.552 127.595 404.894 201.284 365.716 301.439C353.33 333.124 347.061 365.249 346.454 396.479" stroke="black" stroke-opacity="0.05" stroke-width="3" stroke-miterlimit="10"/>
<path d="M908.97 396.479C914.632 361.759 913.387 324.717 904.113 287.22C874.65 167.976 761.958 76.9567 627.712 76.9567C493.466 76.9567 380.774 167.976 351.311 287.22C342.036 324.717 340.792 361.759 346.454 396.479" stroke="black" stroke-opacity="0.05" stroke-width="3" stroke-miterlimit="10"/>
<path d="M908.97 396.479C920.901 358.268 924.772 316.31 918.518 273.001C899.073 134.636 776.045 26.3181 627.712 26.3181C479.379 26.3181 356.335 134.636 336.906 273.001C330.667 316.31 334.523 358.268 346.454 396.479" stroke="black" stroke-opacity="0.05" stroke-width="3" stroke-miterlimit="10"/>
<path d="M908.97 396.479C927.17 354.778 936.05 307.933 932.923 258.782C923.208 101.358 790.131 -24.3203 627.712 -24.3203C465.293 -24.3203 332.215 101.373 322.501 258.782C319.374 307.933 328.254 354.778 346.454 396.479" stroke="black" stroke-opacity="0.05" stroke-width="3" stroke-miterlimit="10"/>
<path d="M908.97 396.479C933.439 351.303 947.328 299.557 947.328 244.578C947.328 68.1098 804.233 -74.9437 627.712 -74.9437C451.191 -74.9437 308.08 68.1098 308.08 244.578C308.08 299.557 321.984 351.303 346.438 396.479" stroke="black" stroke-opacity="0.05" stroke-width="3" stroke-miterlimit="10"/>
<path d="M482.78 266.536C581.339 322.896 646.671 430.106 643.833 551.551C640.994 672.995 570.714 777.034 469.619 828.72" stroke="black" stroke-opacity="0.05" stroke-width="3" stroke-miterlimit="10"/>
<path d="M469.619 828.735C497.534 822.513 525.039 811.921 551.239 796.974C633.48 750.114 691.982 658.746 694.456 552.734C696.945 446.723 642.785 352.73 562.82 302.061C537.334 285.915 510.376 274.048 482.78 266.521" stroke="black" stroke-opacity="0.05" stroke-width="3" stroke-miterlimit="10"/>
<path d="M469.619 828.735C500.873 828.856 533.145 823.348 565.113 811.709C666.177 774.894 742.286 674.012 745.094 553.933C747.902 433.854 676.605 329.512 577.377 288.009C545.987 274.882 514.004 267.872 482.78 266.536" stroke="black" stroke-opacity="0.05" stroke-width="3" stroke-miterlimit="10"/>
<path d="M469.619 828.735C504.213 835.199 541.281 834.82 579.002 826.443C698.934 799.781 792.606 689.293 795.748 555.117C798.89 420.941 710.5 306.188 591.95 273.957C554.669 263.82 517.662 261.711 482.795 266.551" stroke="black" stroke-opacity="0.05" stroke-width="3" stroke-miterlimit="10"/>
<path d="M469.619 828.735C507.552 841.558 549.417 846.398 592.876 841.178C731.706 824.987 842.895 704.559 846.371 556.3C849.847 408.042 744.396 282.546 606.476 259.89C563.306 252.636 521.259 255.519 482.78 266.552" stroke="black" stroke-opacity="0.05" stroke-width="3" stroke-miterlimit="10"/>
<path d="M469.619 828.735C510.892 847.901 557.523 857.871 606.75 855.898C764.402 849.873 893.199 719.825 897.009 557.484C900.819 395.143 778.231 259.207 621.033 245.823C571.958 241.558 524.902 249.328 482.78 266.551" stroke="black" stroke-opacity="0.05" stroke-width="3" stroke-miterlimit="10"/>
<path d="M469.619 828.735C514.231 854.244 565.644 869.343 620.623 870.633C797.099 874.76 943.503 735.091 947.632 558.668C951.761 382.245 812.05 235.883 635.575 231.756C580.595 230.466 528.53 243.152 482.765 266.536" stroke="black" stroke-opacity="0.05" stroke-width="3" stroke-miterlimit="10"/>
<path d="M603.152 394.597C549.098 494.417 443.419 562.219 321.893 562.219C200.367 562.219 94.704 494.417 40.6351 394.597" stroke="black" stroke-opacity="0.05" stroke-width="3" stroke-miterlimit="10"/>
<path d="M40.6351 394.597C47.5114 422.352 58.7593 449.591 74.3029 475.434C123.089 556.528 215.835 612.857 321.893 612.857C427.967 612.857 520.697 556.528 569.484 475.434C585.028 449.591 596.275 422.352 603.152 394.597" stroke="black" stroke-opacity="0.05" stroke-width="3" stroke-miterlimit="10"/>
<path d="M40.6351 394.597C41.2423 425.842 47.4962 457.967 59.8977 489.637C99.0757 589.792 201.734 663.481 321.893 663.481C442.053 663.481 544.711 589.792 583.889 489.637C596.275 457.952 602.545 425.827 603.152 394.597" stroke="black" stroke-opacity="0.05" stroke-width="3" stroke-miterlimit="10"/>
<path d="M40.6351 394.597C34.9732 429.317 36.2179 466.359 45.4925 503.856C74.9557 623.1 187.647 714.119 321.893 714.119C456.14 714.119 568.831 623.1 598.294 503.856C607.569 466.359 608.814 429.317 603.152 394.597" stroke="black" stroke-opacity="0.05" stroke-width="3" stroke-miterlimit="10"/>
<path d="M40.6351 394.597C28.7042 432.807 24.8334 474.766 31.0873 518.075C50.5321 656.439 173.561 764.758 321.893 764.758C470.226 764.758 593.27 656.439 612.7 518.075C618.938 474.766 615.083 432.807 603.152 394.597" stroke="black" stroke-opacity="0.05" stroke-width="3" stroke-miterlimit="10"/>
<path d="M40.6351 394.597C22.4351 436.298 13.5552 483.143 16.6821 532.294C26.3969 689.718 159.474 815.396 321.893 815.396C484.313 815.396 617.39 689.703 627.105 532.294C630.232 483.143 621.352 436.298 603.152 394.597" stroke="black" stroke-opacity="0.05" stroke-width="3" stroke-miterlimit="10"/>
<path d="M40.6351 394.597C16.1812 439.773 2.2769 491.519 2.2769 546.498C2.2769 722.966 145.373 866.02 321.893 866.02C498.414 866.02 641.51 722.966 641.51 546.498C641.51 491.519 627.606 439.773 603.152 394.597" stroke="black" stroke-opacity="0.05" stroke-width="3" stroke-miterlimit="10"/>
</svg>
