<svg width="151" height="161" viewBox="0 0 151 161" fill="none" xmlns="http://www.w3.org/2000/svg">
<path d="M84.7336 128.146C117.715 128.146 144.452 101.416 144.452 68.3158C144.452 35.2158 117.597 8.47571 84.7336 8.47571C51.7536 8.47571 25.0165 35.2158 25.0165 68.3158C25.0165 101.416 51.7536 128.146 84.7336 128.146Z" fill="#EAEEF9"/>
<g filter="url(#filter0_d_2090_7566)">
<path d="M128.626 108.526C117.714 120.376 102.08 127.796 84.7148 127.796C70.8558 127.796 58.0987 123.076 47.9657 115.146V17.4857C47.9657 14.2557 50.5667 11.6157 53.8117 11.6157H111.809L128.626 28.4957V108.526Z" fill="url(#paint0_linear_2090_7566)"/>
</g>
<path d="M74.9787 91.2157H66.5327C66.2177 91.2157 65.9657 90.3958 65.9657 89.4158C65.9657 88.4358 66.2177 87.6157 66.5327 87.6157H74.9787C75.2937 87.6157 75.5457 88.4358 75.5457 89.4158C75.5457 90.5558 75.2937 91.2157 74.9787 91.2157Z" fill="#D5DDEA"/>
<path d="M90.6369 32.5057H64.1809C63.5659 32.5057 63.039 31.6757 63.039 30.7057C63.039 29.7457 63.5659 28.9158 64.1809 28.9158H90.6369C91.2519 28.9158 91.7799 29.7457 91.7799 30.7057C91.7799 31.6757 91.2519 32.5057 90.6369 32.5057Z" fill="#D5DDEA"/>
<path d="M70.708 40.8857H63.8109C63.3949 40.8857 63.039 40.0557 63.039 39.0957C63.039 38.1257 63.3949 37.2958 63.8109 37.2958H70.648C71.065 37.2958 71.4209 38.1257 71.4209 39.0957C71.4209 40.0557 71.065 40.8857 70.708 40.8857Z" fill="#D5DDEA"/>
<path d="M114.183 71.6157H81.3918H77.7777H66.8468C66.4068 71.6157 65.9657 72.3658 65.9657 73.4058C65.9657 74.3058 66.3178 75.2058 66.8468 75.2058H77.7777H81.3918H114.183C114.624 75.2058 115.065 74.4558 115.065 73.4058C114.977 72.3658 114.624 71.6157 114.183 71.6157Z" fill="#D5DDEA"/>
<path d="M114.183 79.6157H81.3918H77.7777H66.8468C66.4068 79.6157 65.9657 80.3658 65.9657 81.4058C65.9657 82.3058 66.3178 83.2058 66.8468 83.2058H77.7777H81.3918H114.183C114.624 83.2058 115.065 82.4558 115.065 81.4058C114.977 80.3658 114.624 79.6157 114.183 79.6157Z" fill="#D5DDEA"/>
<path d="M113.182 63.6157H100.995H96.8448H65.8487C65.4067 63.6157 64.9657 64.3658 64.9657 65.4058C64.9657 66.3058 65.3187 67.2057 65.8487 67.2057H96.8448H100.995H113.182C113.623 67.2057 114.065 66.4558 114.065 65.4058C113.977 64.3658 113.623 63.6157 113.182 63.6157Z" fill="#D5DDEA"/>
<path d="M114.44 56.6157H111.196H107.951H65.8667C65.4157 56.6157 64.9657 57.3658 64.9657 58.4158C64.9657 59.3158 65.3257 60.2157 65.8667 60.2157H107.951H111.556H114.35C114.8 60.2157 115.251 59.4658 115.251 58.4158C115.341 57.5158 114.89 56.6157 114.44 56.6157Z" fill="#D5DDEA"/>
<path d="M114.369 48.6157H103.917H101.326H65.8587C65.4127 48.6157 64.9657 49.3656 64.9657 50.4156C64.9657 51.3156 65.3227 52.2157 65.8587 52.2157H101.326H103.917H114.28C114.905 52.2157 115.262 51.4656 115.262 50.4156C115.262 49.5156 114.905 48.6157 114.369 48.6157Z" fill="#D5DDEA"/>
<path d="M70.8647 47.1157V84.2157C70.8647 88.5557 67.3107 91.7157 63.3617 91.7157H61.3867V101.586C61.3867 103.956 58.6228 104.746 57.0428 103.166L47.1697 91.7157H8.46872C4.12472 91.7157 0.965729 88.1657 0.965729 84.2157V47.1157C0.965729 42.7757 4.51972 39.6157 8.46872 39.6157H63.3617C67.3107 39.6157 70.8647 43.1657 70.8647 47.1157Z" fill="#494B4F"/>
<path d="M111.966 11.6157V24.5873C111.966 26.813 113.674 28.6157 115.782 28.6157H128.966" fill="#D5DDEA"/>
<defs>
<filter id="filter0_d_2090_7566" x="25.9657" y="0.615723" width="124.66" height="160.18" filterUnits="userSpaceOnUse" color-interpolation-filters="sRGB">
<feFlood flood-opacity="0" result="BackgroundImageFix"/>
<feColorMatrix in="SourceAlpha" type="matrix" values="0 0 0 0 0 0 0 0 0 0 0 0 0 0 0 0 0 0 127 0" result="hardAlpha"/>
<feOffset dy="11"/>
<feGaussianBlur stdDeviation="11"/>
<feColorMatrix type="matrix" values="0 0 0 0 0.397708 0 0 0 0 0.47749 0 0 0 0 0.575 0 0 0 0.27 0"/>
<feBlend mode="normal" in2="BackgroundImageFix" result="effect1_dropShadow_2090_7566"/>
<feBlend mode="normal" in="SourceGraphic" in2="effect1_dropShadow_2090_7566" result="shape"/>
</filter>
<linearGradient id="paint0_linear_2090_7566" x1="88.2697" y1="8.93572" x2="88.2697" y2="129.046" gradientUnits="userSpaceOnUse">
<stop stop-color="#FDFEFF"/>
<stop offset="0.9964" stop-color="#ECF0F5"/>
</linearGradient>
</defs>
</svg>
