<svg width="165" height="155" viewBox="0 0 165 155" fill="none" xmlns="http://www.w3.org/2000/svg">
<path d="M88.0365 125.161C120.597 125.161 146.995 98.7616 146.995 66.0916C146.995 33.4116 120.481 7.01147 88.0365 7.01147C55.4755 7.01147 29.0775 33.4116 29.0775 66.0916C29.0775 98.7616 55.4755 125.161 88.0365 125.161Z" fill="#EAEEF9"/>
<g filter="url(#filter0_d_2090_7605)">
<path d="M136.035 121.872H37.3987C35.4777 121.872 33.9007 120.292 33.9007 118.372V94.2815C33.9007 92.3615 35.4777 90.7815 37.3987 90.7815H136.035C137.957 90.7815 139.533 92.3615 139.533 94.2815V118.372C139.533 120.292 137.957 121.872 136.035 121.872Z" fill="url(#paint0_linear_2090_7605)"/>
</g>
<path d="M119.678 102.461H64.7428C63.5608 102.461 62.6248 101.742 62.6248 100.832C62.6248 99.9215 63.5608 99.2014 64.7428 99.2014H119.678C120.86 99.2014 121.797 99.9215 121.797 100.832C121.797 101.742 120.86 102.461 119.678 102.461Z" fill="#D6DCE8"/>
<path d="M99.9698 112.362H64.7428C63.5608 112.362 62.6248 111.641 62.6248 110.731C62.6248 109.831 63.5608 109.112 64.7428 109.112H99.9698C101.153 109.112 102.089 109.831 102.089 110.731C102.089 111.641 101.153 112.362 99.9698 112.362Z" fill="#D6DCE8"/>
<path d="M48.4846 115.072C53.3277 115.072 57.2547 111.142 57.2547 106.302C57.2547 101.462 53.3277 97.5315 48.4846 97.5315C43.6406 97.5315 39.7147 101.462 39.7147 106.302C39.7147 111.142 43.6406 115.072 48.4846 115.072Z" fill="#989FB0"/>
<path fill-rule="evenodd" clip-rule="evenodd" d="M51.9478 104.302L46.4298 109.771L45.0218 108.352L50.5398 102.882L51.9478 104.302Z" fill="white"/>
<path fill-rule="evenodd" clip-rule="evenodd" d="M46.4298 102.882L51.9478 108.352L50.5398 109.771L45.0218 104.302L46.4298 102.882Z" fill="white"/>
<g filter="url(#filter1_d_2090_7605)">
<path d="M139.35 42.5215H40.7136C38.7916 42.5215 37.2156 40.9415 37.2156 39.0215V14.9314C37.2156 13.0114 38.7916 11.4314 40.7136 11.4314H139.35C141.271 11.4314 142.848 13.0114 142.848 14.9314V39.0215C142.848 40.9415 141.271 42.5215 139.35 42.5215Z" fill="url(#paint1_linear_2090_7605)"/>
</g>
<path d="M122.992 23.1116H68.0578C66.8748 23.1116 65.9388 22.3914 65.9388 21.4814C65.9388 20.5714 66.8748 19.8616 68.0578 19.8616H122.992C124.175 19.8616 125.111 20.5714 125.111 21.4814C125.111 22.3914 124.175 23.1116 122.992 23.1116Z" fill="#D6DCE8"/>
<path d="M103.285 33.0115H68.0578C66.8748 33.0115 65.9388 32.2916 65.9388 31.3816C65.9388 30.4816 66.8748 29.7615 68.0578 29.7615H103.285C104.467 29.7615 105.403 30.4816 105.403 31.3816C105.403 32.2916 104.467 33.0115 103.285 33.0115Z" fill="#D6DCE8"/>
<path d="M51.7986 35.7214C56.6416 35.7214 60.5686 31.7914 60.5686 26.9514C60.5686 22.1114 56.6416 18.1814 51.7986 18.1814C46.9546 18.1814 43.0286 22.1114 43.0286 26.9514C43.0286 31.7914 46.9546 35.7214 51.7986 35.7214Z" fill="#989FB0"/>
<path fill-rule="evenodd" clip-rule="evenodd" d="M55.2617 24.9514L49.7438 30.4214L48.3358 29.0015L53.8537 23.5315L55.2617 24.9514Z" fill="white"/>
<path fill-rule="evenodd" clip-rule="evenodd" d="M49.7438 23.5315L55.2617 29.0015L53.8537 30.4214L48.3358 24.9514L49.7438 23.5315Z" fill="white"/>
<g filter="url(#filter2_d_2090_7605)">
<path d="M124.211 82.0117H25.5257C23.6036 82.0117 22.0276 80.4317 22.0276 78.5117V54.4216C22.0276 52.5016 23.6036 50.9216 25.5257 50.9216H124.162C126.083 50.9216 127.66 52.5016 127.66 54.4216V78.5117C127.709 80.4817 126.133 82.0117 124.211 82.0117Z" fill="#494B4F"/>
</g>
<path d="M36.6604 75.2615C41.5034 75.2615 45.4304 71.3315 45.4304 66.4915C45.4304 61.6415 41.5034 57.7214 36.6604 57.7214C31.8164 57.7214 27.8904 61.6415 27.8904 66.4915C27.8904 71.3315 31.8164 75.2615 36.6604 75.2615Z" fill="#989FB0"/>
<path fill-rule="evenodd" clip-rule="evenodd" d="M41.5058 64.4417L35.2808 70.6616L31.8148 67.1917L33.2288 65.7817L35.2808 67.8318L40.0918 63.0217L41.5058 64.4417Z" fill="white"/>
<path d="M107.854 62.6016H52.9186C51.7366 62.6016 50.7996 61.8814 50.7996 60.9714C50.7996 60.0614 51.7366 59.3416 52.9186 59.3416H107.854C109.036 59.3416 109.972 60.0614 109.972 60.9714C109.972 61.8814 108.987 62.6016 107.854 62.6016Z" fill="#D6DCE8"/>
<path d="M88.1456 72.5515H52.9186C51.7366 72.5515 50.7996 71.8314 50.7996 70.9214C50.7996 70.0114 51.7366 69.3015 52.9186 69.3015H88.1456C89.3286 69.3015 90.2646 70.0114 90.2646 70.9214C90.2156 71.8314 89.2786 72.5515 88.1456 72.5515Z" fill="#D6DCE8"/>
<defs>
<filter id="filter0_d_2090_7605" x="11.9007" y="79.7815" width="149.632" height="75.0901" filterUnits="userSpaceOnUse" color-interpolation-filters="sRGB">
<feFlood flood-opacity="0" result="BackgroundImageFix"/>
<feColorMatrix in="SourceAlpha" type="matrix" values="0 0 0 0 0 0 0 0 0 0 0 0 0 0 0 0 0 0 127 0" result="hardAlpha"/>
<feOffset dy="11"/>
<feGaussianBlur stdDeviation="11"/>
<feColorMatrix type="matrix" values="0 0 0 0 0.397708 0 0 0 0 0.47749 0 0 0 0 0.575 0 0 0 0.27 0"/>
<feBlend mode="normal" in2="BackgroundImageFix" result="effect1_dropShadow_2090_7605"/>
<feBlend mode="normal" in="SourceGraphic" in2="effect1_dropShadow_2090_7605" result="shape"/>
</filter>
<filter id="filter1_d_2090_7605" x="15.2156" y="0.431396" width="149.632" height="75.0901" filterUnits="userSpaceOnUse" color-interpolation-filters="sRGB">
<feFlood flood-opacity="0" result="BackgroundImageFix"/>
<feColorMatrix in="SourceAlpha" type="matrix" values="0 0 0 0 0 0 0 0 0 0 0 0 0 0 0 0 0 0 127 0" result="hardAlpha"/>
<feOffset dy="11"/>
<feGaussianBlur stdDeviation="11"/>
<feColorMatrix type="matrix" values="0 0 0 0 0.397708 0 0 0 0 0.47749 0 0 0 0 0.575 0 0 0 0.27 0"/>
<feBlend mode="normal" in2="BackgroundImageFix" result="effect1_dropShadow_2090_7605"/>
<feBlend mode="normal" in="SourceGraphic" in2="effect1_dropShadow_2090_7605" result="shape"/>
</filter>
<filter id="filter2_d_2090_7605" x="0.0276489" y="39.9216" width="149.633" height="75.0901" filterUnits="userSpaceOnUse" color-interpolation-filters="sRGB">
<feFlood flood-opacity="0" result="BackgroundImageFix"/>
<feColorMatrix in="SourceAlpha" type="matrix" values="0 0 0 0 0 0 0 0 0 0 0 0 0 0 0 0 0 0 127 0" result="hardAlpha"/>
<feOffset dy="11"/>
<feGaussianBlur stdDeviation="11"/>
<feColorMatrix type="matrix" values="0 0 0 0 0.397708 0 0 0 0 0.47749 0 0 0 0 0.575 0 0 0 0.27 0"/>
<feBlend mode="normal" in2="BackgroundImageFix" result="effect1_dropShadow_2090_7605"/>
<feBlend mode="normal" in="SourceGraphic" in2="effect1_dropShadow_2090_7605" result="shape"/>
</filter>
<linearGradient id="paint0_linear_2090_7605" x1="86.6827" y1="90.0615" x2="86.6827" y2="122.202" gradientUnits="userSpaceOnUse">
<stop stop-color="#FDFEFF"/>
<stop offset="0.9964" stop-color="#ECF0F5"/>
</linearGradient>
<linearGradient id="paint1_linear_2090_7605" x1="89.9966" y1="10.7114" x2="89.9966" y2="42.8515" gradientUnits="userSpaceOnUse">
<stop stop-color="#FDFEFF"/>
<stop offset="0.9964" stop-color="#ECF0F5"/>
</linearGradient>
</defs>
</svg>
