<svg width="174" height="183" viewBox="0 0 174 183" fill="none" xmlns="http://www.w3.org/2000/svg">
<path d="M93.8649 160.729C138.046 160.729 173.865 124.986 173.865 80.7356C173.865 36.4717 137.888 0.729004 93.8649 0.729004C49.6835 0.729004 13.8649 36.4717 13.8649 80.7356C13.8649 124.986 49.6835 160.729 93.8649 160.729Z" fill="#EAEEF9"/>
<g filter="url(#filter0_d_2090_7586)">
<path d="M136.009 149.193H54.6217C51.7439 149.193 49.278 146.727 49.278 143.856V20.0293C49.278 17.1584 51.7439 14.6919 54.6217 14.6919H136.009C138.885 14.6919 141.353 17.1584 141.353 20.0293V143.856C141.353 146.727 138.885 149.193 136.009 149.193Z" fill="url(#paint0_linear_2090_7586)"/>
<path d="M133.912 128.418H104.823H77.832C76.613 128.418 75.7999 127.396 75.7999 125.854V119.22C75.7999 117.696 76.613 116.674 77.832 116.674H133.912C135.133 116.674 135.944 117.696 135.944 119.22V125.854C135.944 126.876 135.133 128.418 133.912 128.418Z" fill="#D5DDEA"/>
</g>
<path d="M115.608 57.9511H86.5187H59.5273C58.3083 57.9511 57.4952 56.9292 57.4952 55.3871V48.7526C57.4952 47.2285 58.3083 46.2065 59.5273 46.2065H115.608C116.828 46.2065 117.64 47.2285 117.64 48.7526V55.3871C117.64 56.4092 116.828 57.9511 115.608 57.9511Z" fill="#494B4F"/>
<path d="M115.608 104.929H86.5187H59.5273C58.3083 104.929 57.4952 103.907 57.4952 102.365V95.7309C57.4952 94.2067 58.3083 93.1848 59.5273 93.1848H115.608C116.828 93.1848 117.64 94.2067 117.64 95.7309V102.365C117.64 103.387 116.828 104.929 115.608 104.929Z" fill="#D5DDEA"/>
<path d="M133.912 81.4401H104.823H77.832C76.613 81.4401 75.7999 80.4182 75.7999 78.8761V72.2416C75.7999 70.7175 76.613 69.6956 77.832 69.6956H133.912C135.133 69.6956 135.944 70.7175 135.944 72.2416V78.8761C135.944 79.8982 135.133 81.4401 133.912 81.4401Z" fill="#D5DDEA"/>
<g filter="url(#filter1_d_2090_7586)">
<path d="M31.338 21.2598C34.412 19.2698 38.09 18.0996 42.038 18.0996C52.949 18.0996 61.781 26.9296 61.781 37.8396C61.781 48.7496 52.949 57.5796 42.038 57.5796C31.127 57.5796 22.296 48.7496 22.296 37.8696C22.296 34.0096 23.411 30.4296 25.31 27.3796" fill="#8E98A9"/>
</g>
<path d="M33.7194 28.0498C35.9804 26.1498 38.8734 24.9697 42.0684 24.9697C49.1824 24.9697 54.9394 30.7296 54.9394 37.8396C54.9394 44.9496 49.1824 50.7097 42.0684 50.7097C34.9554 50.7097 29.1984 44.9496 29.1984 37.8396C29.1984 34.7096 30.3134 31.8096 32.2124 29.5796" fill="#494B4F"/>
<path d="M38.5419 33.0796C39.5369 32.3596 40.7419 31.9297 42.0679 31.9297C45.3539 31.9297 48.006 34.5896 48.006 37.8696C48.006 41.1596 45.3539 43.8096 42.0679 43.8096C38.7829 43.8096 36.131 41.1596 36.131 37.8696C36.131 36.7296 36.462 35.6397 37.035 34.7397" fill="white"/>
<path d="M32.0311 23.4L32.0012 24.0401L31.8151 26.45L31.8502 26.42L42.4002 36.97C42.7922 37.36 42.7922 37.99 42.4002 38.3799C42.0082 38.7799 41.3752 38.7799 40.9832 38.3799L30.4341 27.8299H30.4412L27.3591 28.0501C26.5461 28.1101 25.7322 27.8 25.1292 27.2L19.1912 21.2601C18.7992 20.8401 19.0401 20.1199 19.6431 20.0899L22.4401 19.91L21.8742 19.2701C21.4822 18.8801 21.4822 18.2499 21.8742 17.8599C22.2662 17.4699 22.8982 17.4699 23.2902 17.8599L23.9161 18.5501L24.1041 15.66C24.1341 15.05 24.8582 14.78 25.2802 15.21L31.1871 21.17C31.7901 21.75 32.0921 22.56 32.0311 23.4Z" fill="#494B4F"/>
<defs>
<filter id="filter0_d_2090_7586" x="27.278" y="3.69189" width="136.075" height="178.501" filterUnits="userSpaceOnUse" color-interpolation-filters="sRGB">
<feFlood flood-opacity="0" result="BackgroundImageFix"/>
<feColorMatrix in="SourceAlpha" type="matrix" values="0 0 0 0 0 0 0 0 0 0 0 0 0 0 0 0 0 0 127 0" result="hardAlpha"/>
<feOffset dy="11"/>
<feGaussianBlur stdDeviation="11"/>
<feColorMatrix type="matrix" values="0 0 0 0 0.397708 0 0 0 0 0.47749 0 0 0 0 0.575 0 0 0 0.27 0"/>
<feBlend mode="normal" in2="BackgroundImageFix" result="effect1_dropShadow_2090_7586"/>
<feBlend mode="normal" in="SourceGraphic" in2="effect1_dropShadow_2090_7586" result="shape"/>
</filter>
<filter id="filter1_d_2090_7586" x="0.296021" y="7.09961" width="83.485" height="83.48" filterUnits="userSpaceOnUse" color-interpolation-filters="sRGB">
<feFlood flood-opacity="0" result="BackgroundImageFix"/>
<feColorMatrix in="SourceAlpha" type="matrix" values="0 0 0 0 0 0 0 0 0 0 0 0 0 0 0 0 0 0 127 0" result="hardAlpha"/>
<feOffset dy="11"/>
<feGaussianBlur stdDeviation="11"/>
<feColorMatrix type="matrix" values="0 0 0 0 0.397708 0 0 0 0 0.47749 0 0 0 0 0.575 0 0 0 0.27 0"/>
<feBlend mode="normal" in2="BackgroundImageFix" result="effect1_dropShadow_2090_7586"/>
<feBlend mode="normal" in="SourceGraphic" in2="effect1_dropShadow_2090_7586" result="shape"/>
</filter>
<linearGradient id="paint0_linear_2090_7586" x1="95.2846" y1="11.5861" x2="95.2846" y2="150.642" gradientUnits="userSpaceOnUse">
<stop stop-color="#FDFEFF"/>
<stop offset="0.9964" stop-color="#ECF0F5"/>
</linearGradient>
</defs>
</svg>
