<svg width="131" height="131" viewBox="0 0 131 131" fill="none" xmlns="http://www.w3.org/2000/svg">
<path d="M65.7087 130.661C101.566 130.661 130.709 101.59 130.709 65.7235C130.709 29.8571 101.566 0.660645 65.7087 0.660645C29.851 0.660645 0.708618 29.7314 0.708618 65.5978C0.708618 101.464 29.851 130.661 65.7087 130.661Z" fill="#EAEEF9"/>
<path d="M37.4529 38.0373L43.6615 36.1496C44.1683 36.0238 44.1683 35.3946 43.6615 35.2688L37.4529 33.3811C37.3262 33.3811 37.1995 33.2552 37.0728 33.0035L35.299 26.9627C35.1723 26.4594 34.5387 26.4594 34.412 26.9627L32.5114 33.1294C32.5114 33.2553 32.3847 33.3812 32.1313 33.507L25.9227 35.3947C25.4159 35.5206 25.4159 36.1498 25.9227 36.2756L32.1313 38.1633C32.258 38.1633 32.3847 38.2892 32.5114 38.5409L34.412 44.7073C34.5387 45.2107 35.1723 45.2107 35.299 44.7073L37.1995 38.5409C37.1995 38.1634 37.3262 38.0373 37.4529 38.0373Z" fill="#AAB2C5"/>
<path d="M17.0624 60.7202L21.3704 57.1964C21.6238 56.9447 21.4971 56.4412 21.1169 56.4412L15.5419 56.9448C15.4152 56.9448 15.2885 56.9447 15.1618 56.8188L11.614 52.5401C11.3606 52.2884 10.8537 52.4142 10.8537 52.7918L11.3606 58.3289C11.3606 58.4548 11.3606 58.5807 11.2339 58.7065L6.9259 62.2303C6.67249 62.482 6.79921 62.9855 7.17933 62.9855L12.7543 62.4819C12.881 62.4819 13.0078 62.4821 13.1345 62.6079L16.6823 66.8866C16.9357 67.1383 17.4425 67.0125 17.4425 66.6349L16.9357 61.0978C16.809 60.972 16.9356 60.846 17.0624 60.7202Z" fill="#AAB2C5"/>
<path d="M71.3694 119.315L76.4376 121.958C76.8177 122.21 77.1978 121.706 76.9444 121.329L74.1569 116.295C74.0302 116.169 74.0302 116.043 74.1569 115.917L76.8177 110.883C77.0711 110.506 76.5643 110.129 76.1842 110.38L71.116 113.149C70.9893 113.275 70.8626 113.275 70.7359 113.149L65.6676 110.506C65.2875 110.254 64.9074 110.758 65.1608 111.135L67.9483 116.169C68.075 116.295 68.075 116.421 67.9483 116.547L65.2875 121.58C65.0341 121.958 65.5409 122.336 65.9211 122.084L70.9893 119.315C71.116 119.315 71.2427 119.315 71.3694 119.315Z" fill="#AAB2C5"/>
<path d="M24.5289 102.848L28.4568 104.862C28.7102 104.988 29.0903 104.736 28.8369 104.484L26.6829 100.709C26.6829 100.583 26.6829 100.457 26.6829 100.457L28.7102 96.5561C28.8369 96.3044 28.5835 95.9268 28.3301 96.1785L24.5289 98.3181C24.4022 98.3181 24.2755 98.3181 24.2755 98.3181L20.3476 96.3044C20.0942 96.1786 19.7141 96.4303 19.9675 96.682L22.1215 100.457C22.1215 100.583 22.1215 100.709 22.1215 100.709L20.0942 104.61C19.9675 104.862 20.2209 105.239 20.4743 104.988L24.2755 102.848C24.4022 102.848 24.5289 102.848 24.5289 102.848Z" fill="#AAB2C5"/>
<path d="M93.7476 28.7833L97.5488 30.671C97.8022 30.7968 98.0556 30.5451 97.9289 30.2934L95.9016 26.6439C95.9016 26.5181 95.9016 26.3923 95.9016 26.3923L97.8022 22.7425C97.9289 22.4908 97.6754 22.2391 97.422 22.3649L93.7476 24.3786C93.6209 24.3786 93.4942 24.3786 93.4942 24.3786L89.5663 22.2393C89.3129 22.1134 89.0595 22.3652 89.1862 22.6169L91.2135 26.2663C91.2135 26.3922 91.2135 26.518 91.2135 26.518L89.3129 30.2934C89.1862 30.5451 89.4396 30.7968 89.693 30.671L93.3675 28.7833C93.4942 28.6574 93.6209 28.6574 93.7476 28.7833Z" fill="#AAB2C5"/>
<path d="M70.1433 14.0008L77.2388 11.8612C77.7456 11.7353 77.7456 10.9805 77.2388 10.8546L70.1433 8.71499C70.0166 8.71499 69.7631 8.58939 69.7631 8.33769L67.6092 1.29014C67.4825 0.786751 66.7222 0.786751 66.5955 1.29014L64.4416 8.33769C64.4416 8.46354 64.3148 8.71499 64.0614 8.71499L56.8392 10.8546C56.3324 10.9805 56.3324 11.7353 56.8392 11.8612L63.9347 14.0008C64.0614 14.0008 64.3148 14.1264 64.3148 14.3781L66.4688 21.4257C66.5955 21.929 67.3557 21.929 67.4824 21.4257L69.6365 14.3781C69.7632 14.2523 69.8899 14.1267 70.1433 14.0008Z" fill="#AAB2C5"/>
<path d="M51.6278 45.6053C52.7807 43.361 55.5678 41.8899 58.6668 41.8899H74.1629C77.3542 41.8899 80.204 43.4487 81.2919 45.7895L85.167 54.1266V58.1607H47.2503V54.1266L51.6278 45.6053Z" fill="#494B4F"/>
<path d="M32.6695 69.272C33.8224 67.0277 36.6095 65.5566 39.7084 65.5566H55.2046C58.3958 65.5566 61.2457 67.1154 62.3336 69.4562L66.2086 77.7933L70.5861 69.272C71.7391 67.0277 74.5262 65.5566 77.6251 65.5566H93.1212C96.3125 65.5566 99.1623 67.1154 100.25 69.4562L104.125 77.7933V81.8274H28.2919V77.7933L32.6695 69.272Z" fill="#494B4F"/>
</svg>
