<svg width="165" height="153" viewBox="0 0 165 153" fill="none" xmlns="http://www.w3.org/2000/svg">
<g filter="url(#filter0_d_2090_7711)">
<path d="M142.645 34.3429V113.629C142.645 117.097 139.979 119.951 136.688 119.951H28.6358C25.3441 119.951 22.6452 117.132 22.6452 113.629V34.3429C22.6452 30.8745 25.3111 28.0555 28.6358 28.0555H136.688C139.979 28.0555 142.645 30.8745 142.645 34.3429Z" fill="url(#paint0_linear_2090_7711)"/>
</g>
<path d="M142.645 34.3429V40.9084H22.6452V34.3429C22.6452 30.8745 25.3111 28.0555 28.6358 28.0555H136.688C139.979 28.0555 142.645 30.8745 142.645 34.3429Z" fill="#D5DDEA"/>
<path d="M29.1295 36.1868C30.0379 36.1868 30.7748 35.4096 30.7748 34.4468C30.7748 33.484 30.0379 32.7068 29.1295 32.7068C28.2199 32.7068 27.4831 33.484 27.4831 34.4468C27.4831 35.4096 28.2199 36.1868 29.1295 36.1868Z" fill="#989FB0"/>
<path d="M34.0659 36.1868C34.9754 36.1868 35.7123 35.4096 35.7123 34.4468C35.7123 33.484 34.9754 32.7068 34.0659 32.7068C33.1574 32.7068 32.4206 33.484 32.4206 34.4468C32.4206 35.4096 33.1574 36.1868 34.0659 36.1868Z" fill="#989FB0"/>
<path d="M38.9696 36.1868C39.8792 36.1868 40.616 35.4096 40.616 34.4468C40.616 33.484 39.8792 32.7068 38.9696 32.7068C38.0612 32.7068 37.3244 33.484 37.3244 34.4468C37.3244 35.4096 38.0612 36.1868 38.9696 36.1868Z" fill="#989FB0"/>
<path d="M86.4333 82.0533H108.825" stroke="#D6DCE8" stroke-width="4" stroke-miterlimit="10" stroke-linecap="round" stroke-linejoin="round"/>
<path d="M35.8429 49.5732H61.0338" stroke="#D6DCE8" stroke-width="4" stroke-miterlimit="10" stroke-linecap="round" stroke-linejoin="round"/>
<path d="M35.8429 60.6397H93.2227" stroke="#D6DCE8" stroke-width="4" stroke-miterlimit="10" stroke-linecap="round" stroke-linejoin="round"/>
<path d="M58.9337 71.7062H93.2221" stroke="#D6DCE8" stroke-width="4" stroke-miterlimit="10" stroke-linecap="round" stroke-linejoin="round"/>
<path d="M35.8429 71.7062H50.5373" stroke="#D6DCE8" stroke-width="4" stroke-miterlimit="10" stroke-linecap="round" stroke-linejoin="round"/>
<path d="M35.8429 82.7839H67.3312" stroke="#D6DCE8" stroke-width="4" stroke-miterlimit="10" stroke-linecap="round" stroke-linejoin="round"/>
<path d="M100.318 95.2194H132.507" stroke="#D6DCE8" stroke-width="4" stroke-miterlimit="10" stroke-linecap="round" stroke-linejoin="round"/>
<path d="M33.1418 95.2194H90.5215" stroke="#D6DCE8" stroke-width="4" stroke-miterlimit="10" stroke-linecap="round" stroke-linejoin="round"/>
<path d="M65.3307 106.297H107.317" stroke="#D6DCE8" stroke-width="4" stroke-miterlimit="10" stroke-linecap="round" stroke-linejoin="round"/>
<path d="M33.1418 106.297H55.5336" stroke="#D6DCE8" stroke-width="4" stroke-miterlimit="10" stroke-linecap="round" stroke-linejoin="round"/>
<path d="M121.627 46.0933L125.845 51.9344L132.805 51.771L131.106 58.8914L135.566 64.5289L129.228 67.5668L127.83 74.7599L121.627 71.4277L115.424 74.7599L114.026 67.5668L107.688 64.5289L112.149 58.8914L110.449 51.771L117.409 51.9344L121.627 46.0933Z" fill="#494B4F"/>
<ellipse cx="97.9812" cy="132.513" rx="3.84929" ry="4.06" fill="#494B4F"/>
<ellipse cx="57.2889" cy="131.353" rx="3.84929" ry="4.06" fill="#494B4F"/>
<ellipse cx="48.4906" cy="141.793" rx="3.84929" ry="4.06" fill="#494B4F"/>
<ellipse cx="30.8939" cy="125.553" rx="3.84929" ry="4.06" fill="#494B4F"/>
<ellipse cx="93.5824" cy="7.23328" rx="3.84929" ry="4.06" fill="#494B4F"/>
<ellipse cx="62.8494" cy="7.06" rx="3.84929" ry="4.06" fill="#494B4F"/>
<line x1="64.4377" y1="7.47327" x2="91.9326" y2="7.47327" stroke="#494B4F" stroke-width="3"/>
<path d="M109.529 28.1133V19.9933L125.476 14.7733V6.65326" stroke="#D5DDEA" stroke-width="3"/>
<path d="M129.326 4.91327C129.326 7.15555 127.602 8.97327 125.476 8.97327C123.35 8.97327 121.627 7.15555 121.627 4.91327C121.627 2.671 123.35 0.853271 125.476 0.853271C127.602 0.853271 129.326 2.671 129.326 4.91327Z" fill="#494B4F"/>
<path d="M30.3475 124.84L48.4904 141.793" stroke="#494B4F" stroke-width="3"/>
<path d="M56.7389 131.933H97.4314" stroke="#494B4F" stroke-width="3"/>
<path d="M77.6349 29.8532L69.9363 21.1532H44.0911L29.2438 12.4532" stroke="#D5DDEA" stroke-width="3"/>
<ellipse cx="28.6942" cy="11.8732" rx="3.84929" ry="4.06" fill="#494B4F"/>
<defs>
<filter id="filter0_d_2090_7711" x="0.645172" y="17.0555" width="164" height="135.895" filterUnits="userSpaceOnUse" color-interpolation-filters="sRGB">
<feFlood flood-opacity="0" result="BackgroundImageFix"/>
<feColorMatrix in="SourceAlpha" type="matrix" values="0 0 0 0 0 0 0 0 0 0 0 0 0 0 0 0 0 0 127 0" result="hardAlpha"/>
<feOffset dy="11"/>
<feGaussianBlur stdDeviation="11"/>
<feColorMatrix type="matrix" values="0 0 0 0 0.397708 0 0 0 0 0.47749 0 0 0 0 0.575 0 0 0 0.27 0"/>
<feBlend mode="normal" in2="BackgroundImageFix" result="effect1_dropShadow_2090_7711"/>
<feBlend mode="normal" in="SourceGraphic" in2="effect1_dropShadow_2090_7711" result="shape"/>
</filter>
<linearGradient id="paint0_linear_2090_7711" x1="82.6061" y1="25.9327" x2="82.6061" y2="120.937" gradientUnits="userSpaceOnUse">
<stop stop-color="#FDFEFF"/>
<stop offset="0.9964" stop-color="#ECF0F5"/>
</linearGradient>
</defs>
</svg>
